<svg width="54" height="54" viewBox="0 0 54 54" fill="none" xmlns="http://www.w3.org/2000/svg">
<path d="M28.2917 28.2917H40.9085C47.8755 28.2917 53.5234 33.9395 53.5234 40.9065C53.5234 47.8735 47.875 53.5213 40.908 53.5213C33.9405 53.5213 28.2917 47.873 28.2917 40.9055V28.2917Z" fill="#F5A70F"/>
<path d="M28.2917 25.2297V12.6158C28.2917 5.64829 33.9405 -1.33514e-05 40.908 -1.33514e-05C47.875 -1.33514e-05 53.5234 5.64784 53.5234 12.6148C53.5234 19.5818 47.8755 25.2297 40.9085 25.2297H28.2917Z" fill="#18C7BB"/>
<path d="M25.2317 25.2297V12.6158C25.2317 5.64829 19.5829 -1.33514e-05 12.6153 -1.33514e-05C5.64836 -1.33514e-05 -1.90735e-06 5.64784 -1.90735e-06 12.6148C-1.90735e-06 19.5818 5.64785 25.2297 12.6148 25.2297H25.2317Z" fill="#DE2F6E"/>
<path d="M25.232 28.6591H12.6152C5.64819 28.6591 0.000333786 34.307 0.000333786 41.2739C0.000333786 48.2409 5.64869 53.8888 12.6157 53.8888C19.5832 53.8888 25.232 48.2405 25.232 41.2729V28.6591Z" fill="#27A8DF"/>
</svg>
